<?xml version="1.0" encoding="UTF-8"?>
<svg xmlns="http://www.w3.org/2000/svg" width="760" height="320" viewBox="0 0 760 320" role="img" aria-labelledby="title desc">
  <title id="title">Sugarkube power ring wiring overview</title>
  <desc id="desc">Diagram showing the 12 V input fuse, branch connectors, test points, and LED indicator wiring.</desc>
  <style>
    .bus { stroke:#1f2933; stroke-width:4; fill:none; }
    .positive { stroke:#dc2626; stroke-width:4; fill:none; }
    .negative { stroke:#0f766e; stroke-width:4; fill:none; }
    .node { fill:#f8fafc; stroke:#1f2933; stroke-width:2; rx:8; ry:8; }
    text { font-family:"Inter","Segoe UI",sans-serif; font-size:14px; fill:#1f2933; }
    .label { font-weight:600; }
    .note { font-size:12px; fill:#475569; }
  </style>
  <rect class="node" x="40" y="120" width="120" height="80" />
  <text class="label" x="100" y="150" text-anchor="middle">J1</text>
  <text class="note" x="100" y="170" text-anchor="middle">12&#160;V input</text>
  <text class="note" x="100" y="190" text-anchor="middle">Screw terminal</text>

  <rect class="node" x="200" y="110" width="100" height="60" />
  <text class="label" x="250" y="140" text-anchor="middle">F1</text>
  <text class="note" x="250" y="160" text-anchor="middle">10&#160;A fuse</text>

  <line class="positive" x1="160" y1="150" x2="200" y2="140" />
  <line class="negative" x1="160" y1="170" x2="360" y2="220" />

  <rect class="node" x="360" y="60" width="110" height="60" />
  <text class="label" x="415" y="90" text-anchor="middle">J2</text>
  <text class="note" x="415" y="110" text-anchor="middle">Branch 1</text>

  <rect class="node" x="360" y="130" width="110" height="60" />
  <text class="label" x="415" y="160" text-anchor="middle">J3</text>
  <text class="note" x="415" y="180" text-anchor="middle">Branch 2</text>

  <rect class="node" x="360" y="200" width="110" height="60" />
  <text class="label" x="415" y="230" text-anchor="middle">J4</text>
  <text class="note" x="415" y="250" text-anchor="middle">Branch 3</text>

  <rect class="node" x="360" y="270" width="110" height="60" />
  <text class="label" x="415" y="300" text-anchor="middle">J5</text>
  <text class="note" x="415" y="320" text-anchor="middle">Branch 4</text>

  <line class="positive" x1="300" y1="140" x2="360" y2="90" />
  <line class="positive" x1="300" y1="140" x2="360" y2="160" />
  <line class="positive" x1="300" y1="140" x2="360" y2="230" />
  <line class="positive" x1="300" y1="140" x2="360" y2="300" />

  <line class="negative" x1="160" y1="190" x2="360" y2="120" />
  <line class="negative" x1="160" y1="190" x2="360" y2="190" />
  <line class="negative" x1="160" y1="190" x2="360" y2="260" />
  <line class="negative" x1="160" y1="190" x2="360" y2="330" />

  <rect class="node" x="520" y="100" width="110" height="60" />
  <text class="label" x="575" y="130" text-anchor="middle">TP1</text>
  <text class="note" x="575" y="150" text-anchor="middle">+ test</text>

  <rect class="node" x="520" y="190" width="110" height="60" />
  <text class="label" x="575" y="220" text-anchor="middle">TP2</text>
  <text class="note" x="575" y="240" text-anchor="middle">– test</text>

  <line class="positive" x1="300" y1="140" x2="520" y2="130" />
  <line class="negative" x1="160" y1="190" x2="520" y2="220" />

  <rect class="node" x="640" y="140" width="100" height="80" />
  <text class="label" x="690" y="170" text-anchor="middle">LED1</text>
  <text class="note" x="690" y="190" text-anchor="middle">+ R1 indicator</text>

  <line class="positive" x1="300" y1="140" x2="640" y2="180" />
  <line class="negative" x1="160" y1="190" x2="640" y2="200" />

  <text class="note" x="250" y="90" text-anchor="middle">Route positive leads in red</text>
  <text class="note" x="250" y="250" text-anchor="middle">Route returns in teal/black</text>
</svg>
